<svg width="13" height="13" viewBox="0 0 13 13" fill="none" xmlns="http://www.w3.org/2000/svg">
<path fill-rule="evenodd" clip-rule="evenodd" d="M10.3 1.26012H3.10002C2.30473 1.26012 1.66002 1.90483 1.66002 2.70012V9.90012C1.66002 10.6954 2.30473 11.3401 3.10002 11.3401H10.3C11.0953 11.3401 11.74 10.6954 11.74 9.90012V2.70012C11.74 1.90483 11.0953 1.26012 10.3 1.26012ZM3.10002 0.00012207C1.60886 0.00012207 0.400024 1.20895 0.400024 2.70012V9.90012C0.400024 11.3913 1.60886 12.6001 3.10002 12.6001H10.3C11.7912 12.6001 13 11.3913 13 9.90012V2.70012C13 1.20895 11.7912 0.00012207 10.3 0.00012207H3.10002Z" fill="#3CBFEF"/>
<path d="M10.1602 3.75613L8.90044 4.79103C9.19438 5.22014 9.36233 5.74181 9.36233 6.29712C9.36233 7.05438 9.05162 7.72749 8.54773 8.21549L9.5135 9.53648C10.4121 8.74558 11 7.59287 11 6.29712C11 5.34635 10.6809 4.47132 10.1602 3.75613Z" fill="#3CBFEF"/>
<path d="M7.85565 8.7089C7.51207 8.86753 7.12661 8.96772 6.72437 8.96772C5.2495 8.96772 4.05116 7.77379 4.05116 6.30433C4.05116 4.83488 5.2495 3.64095 6.72437 3.64095C7.32773 3.64095 7.87245 3.84131 8.31659 4.17528L9.5987 3.1233C8.83612 2.43867 7.83053 2.00452 6.72437 2.00452C4.34446 2.00452 2.41705 3.92481 2.41705 6.29598C2.41705 8.66714 4.34446 10.5875 6.72437 10.5875C7.49533 10.5875 8.20765 10.3704 8.83614 10.0197L7.85565 8.7089Z" fill="#3CBFEF"/>
</svg>
