<svg width="14" height="18" viewBox="0 0 14 18" fill="none" xmlns="http://www.w3.org/2000/svg">
<path fill-rule="evenodd" clip-rule="evenodd" d="M1.82631 9.85473L1.82555 9.85355C1.23301 8.92159 0.733856 7.49524 0.733856 6.28759C0.733856 2.78538 3.72187 0 7.33941 0C10.9569 0 13.945 2.78538 13.945 6.28759C13.945 7.59097 13.5985 8.83413 12.8413 9.87247L7.92465 17.6783C7.79853 17.8785 7.57737 18.0001 7.33942 18.0001C7.10147 18.0001 6.8803 17.8785 6.75419 17.6783L1.82631 9.85473ZM2.11412 6.28759C2.11412 3.60112 4.42295 1.36958 7.33941 1.36958C10.2559 1.36958 12.5647 3.60112 12.5647 6.28759C12.5647 7.35631 12.2806 8.31263 11.7117 9.08517L11.6837 9.12626L7.33942 16.0233L2.99512 9.12626L2.99348 9.12366C2.51343 8.36908 2.11412 7.19196 2.11412 6.28759ZM10.6761 4.06641L9.48847 5.07924C9.76559 5.4992 9.92394 6.00975 9.92394 6.55323C9.92394 7.29434 9.63101 7.9531 9.15594 8.43071L10.0665 9.72354C10.9136 8.94949 11.4679 7.82135 11.4679 6.55323C11.4679 5.62273 11.167 4.76634 10.6761 4.06641ZM7.43694 9.16691C7.81616 9.16691 8.17956 9.06886 8.50348 8.91361L9.42787 10.1965C8.83534 10.5397 8.16378 10.7521 7.43694 10.7521C5.19321 10.7521 3.3761 8.87274 3.3761 6.55212C3.3761 4.2315 5.19321 2.35214 7.43694 2.35214C8.4798 2.35214 9.42785 2.77704 10.1468 3.44708L8.93805 4.47663C8.51932 4.14978 8.00577 3.95369 7.43694 3.95369C6.04646 3.95369 4.9167 5.12217 4.9167 6.5603C4.9167 7.99843 6.04646 9.16691 7.43694 9.16691Z" fill="#3CBFEF"/>
</svg>
