<svg width="18" height="18" viewBox="0 0 18 18" fill="none" xmlns="http://www.w3.org/2000/svg">
<path fill-rule="evenodd" clip-rule="evenodd" d="M15.3 1.26012H8.1C7.30471 1.26012 6.66 1.90483 6.66 2.70012V9.90012C6.66 10.6954 7.30471 11.3401 8.1 11.3401H15.3C16.0953 11.3401 16.74 10.6954 16.74 9.90012V2.70012C16.74 1.90483 16.0953 1.26012 15.3 1.26012ZM8.1 0.00012207C6.60883 0.00012207 5.4 1.20895 5.4 2.70012V9.90012C5.4 11.3913 6.60883 12.6001 8.1 12.6001H15.3C16.7912 12.6001 18 11.3913 18 9.90012V2.70012C18 1.20895 16.7912 0.00012207 15.3 0.00012207H8.1Z" fill="#3CBFEF"/>
<path fill-rule="evenodd" clip-rule="evenodd" d="M6.3 2.70013H5.4C3.90883 2.70013 2.7 3.90897 2.7 5.40013V12.6001C2.7 14.0913 3.90883 15.3001 5.4 15.3001H12.6C14.0912 15.3001 15.3 14.0913 15.3 12.6001V11.7001H14.04V12.6001C14.04 13.3954 13.3953 14.0401 12.6 14.0401H5.4C4.60471 14.0401 3.96 13.3954 3.96 12.6001V5.40013C3.96 4.60484 4.60471 3.96013 5.4 3.96013H6.3V2.70013Z" fill="#3CBFEF"/>
<path fill-rule="evenodd" clip-rule="evenodd" d="M3.6 5.40012H2.7C1.20883 5.40012 0 6.60895 0 8.10012V15.3001C0 16.7913 1.20883 18.0001 2.7 18.0001H9.9C11.3912 18.0001 12.6 16.7913 12.6 15.3001V14.4001H11.34V15.3001C11.34 16.0954 10.6953 16.7401 9.9 16.7401H2.7C1.90471 16.7401 1.26 16.0954 1.26 15.3001V8.10012C1.26 7.30483 1.90471 6.66012 2.7 6.66012H3.6V5.40012Z" fill="#3CBFEF"/>
</svg>
