<svg width="19" height="20" viewBox="0 0 19 20" fill="none" xmlns="http://www.w3.org/2000/svg">
<path d="M5.83313 10.1926C5.83313 9.64302 6.26422 9.19553 6.79362 9.19553C7.32301 9.19553 7.75406 9.64302 7.75406 10.1926C7.75406 10.7421 7.32301 11.1896 6.79362 11.1896C6.26422 11.1896 5.83313 10.7421 5.83313 10.1926Z" fill="#3CBFEF"/>
<path d="M11.5052 10.1926C11.5052 9.64302 11.9363 9.19553 12.4657 9.19553C12.9951 9.19553 13.4261 9.64302 13.4261 10.1926C13.4261 10.7421 12.9951 11.1896 12.4657 11.1896C11.9363 11.1896 11.5052 10.7421 11.5052 10.1926Z" fill="#3CBFEF"/>
<path d="M8.586 15.3506C8.586 14.801 9.0171 14.3535 9.5465 14.3535C10.0759 14.3535 10.507 14.801 10.507 15.3506C10.507 15.9002 10.0759 16.3476 9.5465 16.3476C9.00954 16.3476 8.586 15.9002 8.586 15.3506Z" fill="#3CBFEF"/>
<path d="M12.7002 2.62439L11.5657 3.59003C11.8304 3.99042 11.9817 4.47718 11.9817 4.99534C11.9817 5.70192 11.7019 6.32998 11.2481 6.78533L12.1178 8.01792C12.927 7.27994 13.4565 6.20437 13.4565 4.99534C13.4565 4.10819 13.1691 3.29171 12.7002 2.62439Z" fill="#3CBFEF"/>
<path d="M10.5901 7.25638C10.28 7.40554 9.93216 7.49975 9.56914 7.49975C8.23809 7.49975 7.15661 6.37708 7.15661 4.99533C7.15661 3.61358 8.23809 2.49091 9.56914 2.49091C10.1137 2.49091 10.6053 2.67932 11.0061 2.99335L12.1632 2.00416C11.475 1.36039 10.5674 0.952148 9.56914 0.952148C7.42131 0.952148 5.68185 2.75783 5.68185 4.98747C5.68185 7.21711 7.42131 9.02282 9.56914 9.02282C10.2649 9.02282 10.9078 8.81868 11.475 8.48894L10.5901 7.25638Z" fill="#3CBFEF"/>
<path d="M4.98608 17.698C4.66844 17.855 4.32055 17.9493 3.94998 17.9493C2.6038 17.9493 1.5072 16.8109 1.5072 15.4134C1.5072 14.016 2.6038 12.8776 3.94998 12.8776C4.54744 12.8776 5.09196 13.1131 5.51548 13.4821L6.6499 12.5086C5.94656 11.802 5.00121 11.3702 3.94998 11.3702C1.80214 11.3702 0.0626831 13.1759 0.0626831 15.4056C0.0626831 17.6352 1.80214 19.4409 3.94998 19.4409C4.64575 19.4409 5.2886 19.2368 5.84825 18.9071L4.98608 17.698Z" fill="#3CBFEF"/>
<path d="M6.03732 14.1102C6.25664 14.487 6.39275 14.9346 6.39275 15.4056C6.39275 16.12 6.10538 16.7638 5.65161 17.2192L6.50621 18.4282C7.31544 17.6902 7.84485 16.6146 7.84485 15.4056C7.84485 14.5656 7.59526 13.7883 7.17175 13.1446L6.03732 14.1102Z" fill="#3CBFEF"/>
<path d="M18.2966 13.1052L17.1471 14.0866C17.374 14.4713 17.5177 14.9188 17.5177 15.4055C17.5177 16.1278 17.2151 16.7794 16.7387 17.2348L17.616 18.4674C18.4555 17.7294 19 16.6381 19 15.4055C19 14.5576 18.7353 13.7647 18.2966 13.1052Z" fill="#3CBFEF"/>
<path d="M16.0656 17.698C15.7707 17.8315 15.4455 17.91 15.1051 17.91C13.7741 17.91 12.7002 16.7873 12.7002 15.4134C12.7002 14.0395 13.7741 12.9168 15.1051 12.9168C15.6723 12.9168 16.1942 13.1367 16.6101 13.4742L17.7748 12.4851C17.079 11.802 16.1412 11.3781 15.1127 11.3781C12.9649 11.3781 11.2254 13.1838 11.2254 15.4134C11.2254 17.643 12.9649 19.4488 15.1127 19.4488C15.7858 19.4488 16.4059 19.2525 16.958 18.9463L16.0656 17.698Z" fill="#3CBFEF"/>
</svg>
