<svg width="14" height="18" viewBox="0 0 14 18" fill="none" xmlns="http://www.w3.org/2000/svg">
<path fill-rule="evenodd" clip-rule="evenodd" d="M11.2454 1.28864H2.87959C2.06822 1.28864 1.41048 1.948 1.41048 2.76136V15.2386C1.41048 16.052 2.06822 16.7114 2.87959 16.7114H8.87499V15.9992C8.87499 14.2737 10.2703 12.875 11.9915 12.875H12.7145V2.76136C12.7145 1.948 12.0568 1.28864 11.2454 1.28864ZM13.9942 12.875L14 12.8692V2.76136C14 1.2363 12.7667 0 11.2454 0H2.87959C1.35827 0 0.125 1.2363 0.125 2.76136V15.2386C0.125 16.7637 1.35827 18 2.87959 18H8.86916L8.87499 17.9942V18L10.3294 16.5456L12.542 14.3329L14 12.875H13.9942ZM7.03585 10.4081C7.41232 10.4081 7.77308 10.3108 8.09465 10.1567L9.01232 11.4302C8.42409 11.7709 7.75741 11.9818 7.03585 11.9818C4.80843 11.9818 3.00452 10.1161 3.00452 7.81233C3.00452 5.50858 4.80843 3.64289 7.03585 3.64289C8.07114 3.64289 9.0123 4.0647 9.72601 4.72986L8.52605 5.75193C8.11037 5.42746 7.60055 5.23279 7.03585 5.23279C5.65548 5.23279 4.53392 6.39278 4.53392 7.82045C4.53392 9.24813 5.65548 10.4081 7.03585 10.4081ZM9.07248 6.35016L10.2515 5.34469C10.7388 6.03954 11.0375 6.88969 11.0375 7.81343C11.0375 9.07234 10.4873 10.1923 9.64624 10.9607L8.74237 9.67726C9.21397 9.20313 9.50477 8.54916 9.50477 7.81343C9.50477 7.2739 9.34758 6.76707 9.07248 6.35016Z" fill="#3CBFEF"/>
</svg>
