<svg width="19" height="20" viewBox="0 0 19 20" fill="none" xmlns="http://www.w3.org/2000/svg">
<path fill-rule="evenodd" clip-rule="evenodd" d="M4.69837 0.978888C4.69837 0.993528 4.67514 1.00551 4.64674 1.00551C4.61834 1.00551 4.59511 1.01748 4.59511 1.03212C4.59511 1.04676 4.57704 1.05874 4.55497 1.05874C4.53287 1.05874 4.44639 1.13061 4.36277 1.21845C4.27916 1.30628 4.1983 1.37815 4.1831 1.37815C4.16789 1.37815 3.87701 1.66562 3.53668 2.01697C3.19636 2.36833 2.90592 2.6558 2.89128 2.6558C2.87664 2.6558 2.59786 2.93129 2.27174 3.268C1.94562 3.60471 1.66681 3.88021 1.65217 3.88021C1.63754 3.88021 1.35873 4.1557 1.03261 4.49241C0.706485 4.82912 0.427035 5.10461 0.411598 5.10461C0.374372 5.10461 0.309783 5.17262 0.309783 5.2118C0.309783 5.22895 0.274932 5.27654 0.232337 5.31755C0.189742 5.35857 0.154891 5.4113 0.154891 5.4347C0.154891 5.45812 0.143274 5.47726 0.129076 5.47726C0.114878 5.47726 0.103261 5.51319 0.103261 5.55711C0.103261 5.60103 0.091644 5.63697 0.0774456 5.63697C0.0632473 5.63697 0.0516304 5.69686 0.0516304 5.77005C0.0516304 5.84325 0.0400136 5.90314 0.0258152 5.90314C0.0103261 5.90314 0 6.00961 0 6.16932C0 6.32902 0.0103261 6.43549 0.0258152 6.43549C0.0400136 6.43549 0.0516304 6.47143 0.0516304 6.51535C0.0516304 6.55927 0.0632473 6.5952 0.0774456 6.5952C0.091644 6.5952 0.103261 6.61916 0.103261 6.64843C0.103261 6.67771 0.114878 6.70167 0.129076 6.70167C0.143274 6.70167 0.154891 6.72299 0.154891 6.74902C0.154891 6.77508 0.178125 6.81365 0.206522 6.83476C0.234918 6.85587 0.258152 6.88858 0.258152 6.90745C0.258152 6.94772 0.890651 7.60667 0.929296 7.60667C0.943753 7.60667 1.50139 8.16963 2.16848 8.85769C2.83557 9.54576 3.39331 10.1087 3.40784 10.1087C3.4224 10.1087 3.67787 10.3603 3.97554 10.6677C4.27322 10.9751 4.53439 11.2267 4.55595 11.2267C4.57748 11.2267 4.59511 11.2386 4.59511 11.2533C4.59511 11.2679 4.62996 11.2799 4.67255 11.2799C4.71515 11.2799 4.75 11.2919 4.75 11.3065C4.75 11.322 4.83604 11.3331 4.95652 11.3331C5.077 11.3331 5.16304 11.322 5.16304 11.3065C5.16304 11.2919 5.19789 11.2799 5.24049 11.2799C5.28308 11.2799 5.31793 11.2679 5.31793 11.2533C5.31793 11.2386 5.33562 11.2267 5.35723 11.2267C5.40834 11.2267 5.67935 10.9472 5.67935 10.8945C5.67935 10.8722 5.69096 10.854 5.70516 10.854C5.71936 10.854 5.73098 10.8181 5.73098 10.7742C5.73098 10.7302 5.7426 10.6943 5.75679 10.6943C5.77184 10.6943 5.78261 10.6056 5.78261 10.4814C5.78261 10.3571 5.77184 10.2684 5.75679 10.2684C5.7426 10.2684 5.73098 10.2325 5.73098 10.1886C5.73098 10.1447 5.71936 10.1087 5.70516 10.1087C5.69096 10.1087 5.67935 10.0907 5.67935 10.0687C5.67935 10.0248 4.01772 8.29873 3.97549 8.29873C3.94983 8.29873 2.78804 7.11395 2.78804 7.08776C2.78804 7.08036 6.11046 7.07432 10.1712 7.07432C15.0761 7.07432 17.5543 7.06537 17.5543 7.0477C17.5543 7.03306 17.5892 7.02108 17.6318 7.02108C17.6744 7.02108 17.7092 7.0091 17.7092 6.99446C17.7092 6.97982 17.7269 6.96785 17.7485 6.96785C17.7996 6.96785 18.0707 6.68841 18.0707 6.63571C18.0707 6.61343 18.0823 6.5952 18.0965 6.5952C18.1107 6.5952 18.1223 6.55927 18.1223 6.51535C18.1223 6.47143 18.1339 6.43549 18.1481 6.43549C18.1631 6.43549 18.1739 6.34678 18.1739 6.22255C18.1739 6.09833 18.1631 6.00961 18.1481 6.00961C18.1339 6.00961 18.1223 5.97368 18.1223 5.92976C18.1223 5.88584 18.1107 5.84991 18.0965 5.84991C18.0823 5.84991 18.0707 5.83167 18.0707 5.80939C18.0707 5.75669 17.7996 5.47726 17.7485 5.47726C17.7269 5.47726 17.7092 5.46528 17.7092 5.45064C17.7092 5.436 17.6744 5.42403 17.6318 5.42403C17.5892 5.42403 17.5543 5.41205 17.5543 5.39741C17.5543 5.37973 15.0417 5.37079 10.0679 5.37079C5.95041 5.37079 2.58152 5.36475 2.58152 5.35735C2.58152 5.33097 3.74341 4.14638 3.76928 4.14638C3.78379 4.14638 4.06246 3.87089 4.38859 3.53418C4.71471 3.19746 4.99344 2.92197 5.00802 2.92197C5.05028 2.92197 5.62772 2.31459 5.62772 2.27013C5.62772 2.24801 5.63933 2.22991 5.65353 2.22991C5.66773 2.22991 5.67935 2.20596 5.67935 2.17668C5.67935 2.1474 5.69096 2.12344 5.70516 2.12344C5.71936 2.12344 5.73098 2.09949 5.73098 2.07021C5.73098 2.04093 5.7426 2.01697 5.75679 2.01697C5.77184 2.01697 5.78261 1.92826 5.78261 1.80403C5.78261 1.67981 5.77184 1.59109 5.75679 1.59109C5.7426 1.59109 5.73098 1.55516 5.73098 1.51124C5.73098 1.46732 5.71936 1.43139 5.70516 1.43139C5.69096 1.43139 5.67935 1.41315 5.67935 1.39088C5.67935 1.33817 5.40834 1.05874 5.35723 1.05874C5.33562 1.05874 5.31793 1.04676 5.31793 1.03212C5.31793 1.01748 5.2947 1.00551 5.2663 1.00551C5.23791 1.00551 5.21467 0.993528 5.21467 0.978888C5.21467 0.962917 5.11141 0.952271 4.95652 0.952271C4.80163 0.952271 4.69837 0.962917 4.69837 0.978888ZM13.837 9.28358C13.837 9.29822 13.8021 9.31019 13.7595 9.31019C13.7169 9.31019 13.6821 9.32217 13.6821 9.33681C13.6821 9.35145 13.6644 9.36343 13.6428 9.36343C13.5917 9.36343 13.3207 9.64286 13.3207 9.69556C13.3207 9.71784 13.309 9.73607 13.2948 9.73607C13.2806 9.73607 13.269 9.77201 13.269 9.81593C13.269 9.85985 13.2574 9.89578 13.2432 9.89578C13.2282 9.89578 13.2174 9.9845 13.2174 10.1087C13.2174 10.2329 13.2282 10.3217 13.2432 10.3217C13.2574 10.3217 13.269 10.3576 13.269 10.4015C13.269 10.4454 13.2806 10.4814 13.2948 10.4814C13.309 10.4814 13.3207 10.4994 13.3207 10.5214C13.3207 10.5652 14.9823 12.2914 15.0245 12.2914C15.0502 12.2914 16.212 13.4761 16.212 13.5023C16.212 13.5097 13.0754 13.5158 9.24185 13.5158C4.61233 13.5158 2.27174 13.5247 2.27174 13.5424C2.27174 13.557 2.23689 13.569 2.19429 13.569C2.1517 13.569 2.11685 13.581 2.11685 13.5956C2.11685 13.6103 2.09916 13.6222 2.07756 13.6222C2.02644 13.6222 1.75543 13.9017 1.75543 13.9544C1.75543 13.9767 1.74382 13.9949 1.72962 13.9949C1.71542 13.9949 1.7038 14.0308 1.7038 14.0747C1.7038 14.1187 1.69219 14.1546 1.67799 14.1546C1.66294 14.1546 1.65217 14.2433 1.65217 14.3675C1.65217 14.4918 1.66294 14.5805 1.67799 14.5805C1.69219 14.5805 1.7038 14.6164 1.7038 14.6603C1.7038 14.7042 1.71542 14.7402 1.72962 14.7402C1.74382 14.7402 1.75543 14.7584 1.75543 14.7807C1.75543 14.8334 2.02644 15.1128 2.07756 15.1128C2.09916 15.1128 2.11685 15.1248 2.11685 15.1394C2.11685 15.1541 2.1517 15.1661 2.19429 15.1661C2.23689 15.1661 2.27174 15.178 2.27174 15.1927C2.27174 15.2104 4.64674 15.2193 9.34511 15.2193C13.2355 15.2193 16.4185 15.2254 16.4185 15.2328C16.4185 15.2591 15.3082 16.3905 15.2823 16.3905C15.2678 16.3905 14.9892 16.666 14.663 17.0027C14.3369 17.3394 14.0582 17.6149 14.0436 17.6149C14.0048 17.6149 13.3723 18.2737 13.3723 18.3141C13.3723 18.333 13.349 18.3657 13.3207 18.3868C13.2903 18.4093 13.269 18.4557 13.269 18.4991C13.269 18.5398 13.2574 18.5731 13.2432 18.5731C13.2282 18.5731 13.2174 18.6618 13.2174 18.7861C13.2174 18.9103 13.2282 18.999 13.2432 18.999C13.2574 18.999 13.269 19.0349 13.269 19.0788C13.269 19.1228 13.2806 19.1587 13.2948 19.1587C13.309 19.1587 13.3207 19.1769 13.3207 19.1992C13.3207 19.2519 13.5917 19.5313 13.6428 19.5313C13.6644 19.5313 13.6821 19.5433 13.6821 19.558C13.6821 19.5726 13.7053 19.5846 13.7337 19.5846C13.7621 19.5846 13.7853 19.5966 13.7853 19.6112C13.7853 19.6272 13.8886 19.6378 14.0435 19.6378C14.1984 19.6378 14.3016 19.6272 14.3016 19.6112C14.3016 19.5966 14.3249 19.5846 14.3533 19.5846C14.3817 19.5846 14.4049 19.5726 14.4049 19.558C14.4049 19.5433 14.4229 19.5313 14.4449 19.5313C14.4668 19.5313 14.565 19.4475 14.663 19.345C14.7611 19.2425 14.8536 19.1587 14.8687 19.1587C14.8838 19.1587 15.1746 18.8712 15.5149 18.5199C15.8553 18.1685 16.1457 17.8811 16.1604 17.8811C16.175 17.8811 16.4538 17.6056 16.7799 17.2689C17.106 16.9321 17.3848 16.6566 17.3995 16.6566C17.4141 16.6566 17.6929 16.3812 18.019 16.0444C18.3451 15.7077 18.6296 15.4322 18.6511 15.4322C18.6726 15.4322 18.6902 15.4131 18.6902 15.3897C18.6902 15.3663 18.7251 15.3136 18.7677 15.2725C18.8153 15.2267 18.8451 15.1713 18.8451 15.1288C18.8451 15.0907 18.8567 15.0596 18.8709 15.0596C18.8851 15.0596 18.8967 15.0356 18.8967 15.0064C18.8967 14.9771 18.9084 14.9531 18.9226 14.9531C18.9369 14.9531 18.9484 14.8821 18.9484 14.7934C18.9484 14.7047 18.9598 14.6337 18.9742 14.6337C18.9895 14.6337 19 14.5361 19 14.3942C19 14.2522 18.9895 14.1546 18.9742 14.1546C18.96 14.1546 18.9484 14.1187 18.9484 14.0747C18.9484 14.0308 18.9368 13.9949 18.9226 13.9949C18.9084 13.9949 18.8967 13.9709 18.8967 13.9417C18.8967 13.9124 18.8851 13.8884 18.8709 13.8884C18.8567 13.8884 18.8451 13.8671 18.8451 13.8411C18.8451 13.815 18.8219 13.7764 18.7935 13.7553C18.7651 13.7342 18.7418 13.7015 18.7418 13.6826C18.7418 13.6424 18.1093 12.9834 18.0707 12.9834C18.0562 12.9834 17.4986 12.4205 16.8315 11.7324C16.1644 11.0443 15.6067 10.4814 15.5922 10.4814C15.5776 10.4814 15.3221 10.2298 15.0245 9.9224C14.7268 9.61496 14.4656 9.36343 14.4441 9.36343C14.4225 9.36343 14.4049 9.35145 14.4049 9.33681C14.4049 9.32217 14.37 9.31019 14.3274 9.31019C14.2849 9.31019 14.25 9.29822 14.25 9.28358C14.25 9.26806 14.164 9.25696 14.0435 9.25696C13.923 9.25696 13.837 9.26806 13.837 9.28358Z" fill="#3CBFEF"/>
</svg>
