<svg width="18" height="18" viewBox="0 0 18 18" fill="none" xmlns="http://www.w3.org/2000/svg">
<path fill-rule="evenodd" clip-rule="evenodd" d="M0.938682 1.7587C1.29142 1.7587 1.57738 2.04465 1.57738 2.39739V15.3018C1.57738 15.5991 1.69547 15.8842 1.90567 16.0944C2.11588 16.3046 2.40098 16.4227 2.69825 16.4227H15.6017C15.899 16.4227 16.1841 16.3046 16.3943 16.0944C16.6045 15.8842 16.7226 15.5991 16.7226 15.3018V5.91653C16.7226 5.61925 16.6045 5.33415 16.3943 5.12395C16.1841 4.91374 15.899 4.79565 15.6017 4.79565H2.69825C2.34551 4.79565 2.05955 4.5097 2.05955 4.15696C2.05955 3.80422 2.34551 3.51826 2.69825 3.51826H15.6017C16.2378 3.51826 16.8478 3.77094 17.2976 4.2207C17.7473 4.67046 18 5.28047 18 5.91653V15.3018C18 15.9379 17.7473 16.5479 17.2976 16.9976C16.8478 17.4474 16.2378 17.7001 15.6017 17.7001H2.69825C2.06219 17.7001 1.45218 17.4474 1.00242 16.9976C0.552661 16.5479 0.299988 15.9379 0.299988 15.3018V2.39739C0.299988 2.04465 0.585941 1.7587 0.938682 1.7587Z" fill="#3CBFEF"/>
<path fill-rule="evenodd" clip-rule="evenodd" d="M2.73499 1.27653C2.10453 1.27653 1.5943 1.77021 1.57798 2.36547L1.57797 2.36591C1.57376 2.5157 1.59963 2.66481 1.65404 2.80442C1.70845 2.94404 1.79031 3.07133 1.89476 3.17876C1.99922 3.2862 2.12416 3.3716 2.26219 3.42992C2.40023 3.48823 2.54855 3.51828 2.6984 3.51828C3.05114 3.51828 3.33709 3.80423 3.33709 4.15697C3.33708 4.50972 3.05113 4.79567 2.69839 4.79567C2.37777 4.79566 2.06041 4.73138 1.76507 4.6066C1.46973 4.48183 1.20241 4.2991 0.978909 4.06923C0.755409 3.83936 0.580268 3.56701 0.463845 3.26828C0.347475 2.96968 0.292129 2.6508 0.301075 2.33046M0.301087 2.33001C0.337555 1.00873 1.44802 -0.000854492 2.73499 -0.000854492H14.1356C14.7716 -0.000854492 15.3816 0.251819 15.8314 0.70158C16.2812 1.15134 16.5338 1.76135 16.5338 2.39741V4.23011C16.5338 4.58285 16.2479 4.86881 15.8951 4.86881C15.5424 4.86881 15.2564 4.58285 15.2564 4.23011V2.39741C15.2564 2.10013 15.1384 1.81503 14.9282 1.60483C14.7179 1.39463 14.4328 1.27653 14.1356 1.27653H2.73499" fill="#3CBFEF"/>
<path fill-rule="evenodd" clip-rule="evenodd" d="M9.83936 10.5417C9.87582 9.22044 10.9864 8.21088 12.2733 8.21088H17.3613C17.714 8.21088 18 8.49683 18 8.84957C18 9.20231 17.714 9.48826 17.3613 9.48826H12.2733C11.6428 9.48826 11.1326 9.98197 11.1163 10.5772L11.1162 10.5776C11.112 10.7274 11.1379 10.8765 11.1923 11.0162C11.2467 11.1558 11.3286 11.2831 11.433 11.3905C11.5375 11.4979 11.6624 11.5833 11.8005 11.6416C11.9385 11.7 12.0868 11.73 12.2367 11.73H17.3613C17.714 11.73 18 12.016 18 12.3687C18 12.7214 17.714 13.0074 17.3613 13.0074H12.2367C11.916 13.0074 11.5987 12.9431 11.3033 12.8183C11.008 12.6936 10.7407 12.5108 10.5172 12.281C10.2937 12.0511 10.1185 11.7787 10.0021 11.48C9.88574 11.1814 9.8304 10.8625 9.83934 10.5422" fill="#3CBFEF"/>
<path fill-rule="evenodd" clip-rule="evenodd" d="M11.8838 10.6092C11.8838 10.2564 12.1698 9.97046 12.5225 9.97046H12.8744C13.2272 9.97046 13.5131 10.2564 13.5131 10.6092C13.5131 10.9619 13.2272 11.2478 12.8744 11.2478H12.5225C12.1698 11.2478 11.8838 10.9619 11.8838 10.6092Z" fill="#3CBFEF"/>
</svg>
