<?xml version="1.0" standalone="no"?>
<!DOCTYPE svg PUBLIC "-//W3C//DTD SVG 20010904//EN"
 "http://www.w3.org/TR/2001/REC-SVG-20010904/DTD/svg10.dtd">
<svg version="1.0" xmlns="http://www.w3.org/2000/svg"
 width="896.000000pt" height="896.000000pt" viewBox="0 0 896.000000 896.000000"
 preserveAspectRatio="xMidYMid meet">
<metadata>
Created by potrace 1.11, written by Peter Selinger 2001-2013
</metadata>
<g transform="translate(0.000000,896.000000) scale(0.100000,-0.100000)"
fill="#000000" stroke="none">
<path d="M3830 8536 c-619 -232 -1569 -588 -2112 -791 -544 -203 -988 -373
-988 -378 0 -4 73 -43 163 -86 146 -71 535 -260 1152 -561 121 -59 378 -184
570 -278 193 -93 458 -223 590 -287 132 -65 300 -146 372 -181 l133 -63 772
280 c1304 474 3141 1140 3428 1244 102 37 191 71 199 75 18 10 45 -5 -475 246
-413 198 -756 364 -1269 611 -154 75 -395 191 -535 258 -140 67 -354 170 -474
229 l-219 106 -91 -1 -91 0 -1125 -423z"/>
<path d="M7845 7223 c-374 -131 -652 -228 -910 -318 -323 -112 -879 -306
-1120 -390 -115 -40 -336 -117 -490 -170 -154 -54 -283 -101 -288 -104 -4 -4
-4 -730 0 -1613 l6 -1607 1531 -725 c842 -398 1534 -722 1537 -718 4 4 12 905
18 2002 6 1097 14 2388 17 2868 6 849 6 872 -12 871 -11 -1 -140 -44 -289 -96z"/>
<path d="M653 5933 c4 -681 10 -1964 14 -2851 4 -1142 9 -1615 17 -1621 14
-12 2465 -1194 2824 -1362 l102 -48 0 2858 0 2858 -57 25 c-32 15 -242 115
-468 223 -225 109 -450 216 -500 240 -49 23 -412 197 -805 385 -1018 488
-1107 530 -1121 530 -10 0 -11 -266 -6 -1237z"/>
</g>
</svg>
